<?xml version="1.0" encoding="utf-8"?>
<!-- Generator: Adobe Illustrator 23.0.1, SVG Export Plug-In . SVG Version: 6.00 Build 0)  -->
<svg version="1.1" id="Layer_1" xmlns="http://www.w3.org/2000/svg" xmlns:xlink="http://www.w3.org/1999/xlink" x="0px" y="0px"
	 viewBox="0 0 566 567" style="enable-background:new 0 0 566 567;" xml:space="preserve">
<title>Asset 1</title>
<g>
	<g id="Layer_1-2">
		<path d="M259,0h47c0.3,0.3,0.7,0.8,1,0.9c8.3,1.1,16.6,2,24.9,3.1c25.2,3.6,49.1,11.7,72,22.5c23.4,11.1,45.5,24.6,64.4,42.5
			c12.9,12.2,25.9,24.7,37.2,38.5c15.1,18.4,27.2,39,36.8,61c11.1,25.4,18.7,51.7,21.8,79.3c0.5,4.1,1.3,8.2,2,12.3v47
			c-0.3,0.3-0.8,0.7-0.9,1c-1.1,8.3-1.9,16.6-3.2,24.9c-3.7,25.2-11.6,49.1-22.5,72c-11.1,23.4-24.6,45.5-42.5,64.4
			c-12.1,12.8-24.5,25.7-38.1,36.9c-21.3,17.4-45.2,31.3-70.8,41.2c-22.5,8.8-45.7,15.3-69.9,17.7c-4.1,0.4-8.2,1.3-12.3,2h-47
			c-0.3-0.3-0.7-0.8-1-0.9c-8.3-1.1-16.6-1.9-24.9-3.1c-25.4-3.7-49.3-11.9-72.4-22.8c-24.5-11.4-47.2-26.4-67.2-44.5
			c-16.4-14.6-31.1-31.1-43.7-49.1c-14.2-20.6-26.3-42.3-34.2-65.9C10.4,365.2,7,349,3,333.1c-1.3-5.3-2-10.7-3-16.1v-67
			c1-5.2,2.2-10.4,3-15.6c3.8-25.5,11.9-49.7,23-72.9c10.9-23.2,25.1-44.8,42-64.2c15.2-17.4,32.4-33,51.2-46.4
			c20.4-14.4,42.7-26.1,66.2-34.6C205.2,9.2,225.6,4,246.7,2C250.8,1.6,254.9,0.7,259,0z M194,479.5v12c0,7.5,1.9,9.8,9.2,9.3
			c5-0.4,7.7,2.2,10.4,5.4c1.4,1.7,2.4,3.9,3.9,5.6c2.3,2.8,4.7,4.6,8.8,2.5c9.1-4.6,18.1-8.9,17.9-21.3c0-1,1.6-2.8,2.4-2.8
			c9.9,0,13.7,3.9,14.5,14.3c0.1,1-0.4,2.5,0.1,2.9c1.5,1.4,3.3,3,5.2,3.4c2.1,0.4,4-0.2,4.9-3.3c2.9-9.7,6.5-19.2,10-28.8
			c1.1-3.1,3.5-3.5,5.1-0.8c2,3.6,8.5,6,4.3,11.9c-0.1,0.2,0.4,0.9,0.5,1.3c1.7,4.9,4.1,9.7,4.7,14.8c0.6,4.4,2.4,5.3,6,5.1
			c3.8-0.2,3.9-2.8,4.4-5.9c2-11.6,0.8-12.4,12.5-14.3c3.4-0.6,4.2-0.2,4.5,3.2c0.4,5.3,1.3,10.5,6.3,13.7c2.7,1.8,5.3,3.9,8.2,5.2
			c7,3.3,8.3,3.8,12.5-2.3c3.8-5.5,7.5-11.2,16-9.9c3.3,0.5,6.9-1.9,6.8-6.6c-0.1-9.8,0.1-19.7-0.1-29.5c-0.1-4-1.1-7.7-6.7-7.8
			c-4.9-0.1-9.7-1.2-14.6-1.8c-5.7-0.7-11.5-0.8-17-2.3c-2.2-0.6-4.9-3.9-5.2-6.2c-0.4-3.1,2.5-4.5,6-4.7c4.9-0.2,9.7-1.4,14.6-1.8
			c9.4-0.8,18.2-3.3,26.1-8.6c5-3.4,9.9-7,15.1-9.9c7.9-4.4,16.2-8,24.2-12.3s15.1-8.3,19.3-17.6c4-8.8,8-17.5,10.2-26.8
			c3.1-12.8,4.9-25.9,8.2-38.7c3.7-14.1,4.4-28.2,4-42.6c-0.2-6.7-0.4-13.4,0-20c0.8-14.1-6.2-25.3-12.8-36.7
			c-5.2-9-11.3-17.6-16.1-26.8c-4.7-9-8-18.8-12.7-27.9c-5.3-10.4-5.2-21.4-4.2-32.4c0.5-5.5,3.5-11,6-16.2c1.2-2.5,4.1-4.1,5.6-6.5
			c4.8-7.7,8.5-16.2,14.2-23.2c5.4-6.7,7.9-13.2,7-21.6c-0.4-3.8-1.7-5.2-5.5-5.4c-9.4-0.5-17,3.9-24.5,8.5
			c-8.4,5.2-17.3,9.3-27.3,9.4c-27.3,0.3-54.7,0-82,0.2c-3.4,0.1-6.7,1.2-9.4,3.2c-3.6,3-6.7,6.4-9.2,10.2c-1.9,2.7-3,2.3-4.8,0.3
			c-2.5-2.9-5-5.7-7.5-8.5c-3.5-4-7.8-5.5-13.1-5.4c-26.5,0.2-53,0.2-79.5,0c-10.5-0.1-19.8-4.2-28.7-9.7c-7.4-4.6-15.2-9-24.6-8.3
			c-2.9,0.2-4.7,1.2-5,4.3c-0.8,8.1,0,15.7,6.4,21.7c0.9,1,1.6,2.1,2.2,3.2c4.8,7.9,9.1,16.2,14.6,23.6c3.2,4.4,7,8.1,8.1,13.8
			c2.4,11.9,3.3,23.7-1.7,35.2c-2.9,6.5-5.8,13-8.7,19.5c-2.3,5.2-4.2,10.6-7,15.6c-5.6,9.9-11.7,19.5-17.6,29.2
			c-3.7,6.1-7.8,12.2-8.2,19.5c-0.7,12.6-0.9,25.2-1.1,37.8c-0.1,9.7-1,19.5,2.9,28.8c0.5,1.7,0.9,3.5,1,5.3
			c0.9,6.2,1.2,12.4,2.6,18.5c2.8,11.9,5.6,23.8,9.6,35.3c3,8.5,6.5,17.2,13.3,23.6c2.3,2.2,5.3,3.6,8.1,5.2c4,2.4,8.2,4.7,12.3,6.9
			c9.4,5.1,19.9,7.9,28.2,15.3c4,3.6,8.9,6.1,14.1,7.5c9.5,2.3,19.1,3.9,28.8,5c3.5,0.4,6.9,1.1,6.5,4.6c-0.2,2.3-3.3,5.8-5.6,6.2
			c-8.5,1.6-17.2,2.3-25.8,3.3c-10,1.1-12.1,0.7-12.2,12C194,471.9,194,475.7,194,479.5z"/>
		<path d="M205.6,201.1c-12.9,0-23.4-10.4-23.4-23.3c0-12.9,10.4-23.4,23.3-23.4c12.9,0,23.4,10.4,23.4,23.3c0,0.1,0,0.2,0,0.3
			C228.8,190.8,218.4,201.1,205.6,201.1z"/>
		<path d="M362.4,201.1c-12.9,0-23.4-10.5-23.3-23.4s10.5-23.4,23.4-23.3c12.9,0,23.4,10.5,23.3,23.4c0,0.1,0,0.1,0,0.2
			C385.7,190.8,375.3,201.2,362.4,201.1z"/>
		<path d="M308.7,227.6h-51.7l26.3-44.6L308.7,227.6z"/>
		<path d="M185.9,306.2H221c0.7,9.1,1.4,18-7.3,24c-5.9,4.1-13.7,4.3-19.8,0.5C184.8,324.8,185.3,315.8,185.9,306.2z"/>
		<path d="M302.1,306.4c0.6,9.2,1.2,18.1-7.6,24c-6.3,4.1-13,4.2-19.4,0.4c-9.3-5.6-8.8-14.8-8.2-24.3L302.1,306.4z"/>
		<path d="M382.1,306c0.7,9.8,1.2,18.8-8,24.7c-6.1,3.8-13.9,3.6-19.8-0.4c-8.6-6.1-8-14.9-7.3-24c1-0.1,1.8-0.2,2.6-0.2L382.1,306z
			"/>
		<path d="M226.2,355.1h34.2c2.8,9.4,0.4,18.6-6.1,23.6c-5.9,4.4-13.9,4.9-20.2,1.1C226.8,375.4,224.1,367,226.2,355.1z"/>
		<path d="M342,355c0.7,9.4,1.3,18.2-7.3,24.3c-5.9,4.1-13.7,4.2-19.8,0.4c-9.1-5.9-8.6-14.9-7.9-24.6H342L342,355z"/>
		<path d="M284.5,454.7c-2.8-0.1-5.6-0.2-8.4-0.5c-3.3-0.4-5.6-2.2-5.8-5.7c-0.4-3,1.7-5.7,4.7-6.1c0.2,0,0.4,0,0.6,0
			c5.6-0.4,11.2-0.3,16.8,0.5c1.7,0.3,4.2,3.7,4.1,5.6s-2.6,4.4-4.6,5.4s-4.9,0.5-7.3,0.7L284.5,454.7z"/>
	</g>
</g>
</svg>
